<svg viewBox="0 0 199.92 70.53"><defs/><g data-name="Camada 2"><path fill="#f2849e" d="M20.22 43.19l-.7-.1-.2.7c-.8 2.4-2.7 3.9-5.6 4.6-4.2 1-7.8-.7-8.6-4-.9-3.5 1.4-6.6 5.7-7.6 2.9-.7 5.3-.2 6.9 1.5l.5.5.6-.5c.5-.4 1.2-.9 1.7-1.3l.3-.2a.35.35 0 01.2-.1l1-.7-.7-.7c-3-2.9-7-3.8-11.5-2.7-7.1 1.8-11 7.1-9.5 13 1.5 6.2 7.2 9 14.5 7.2 4.7-1.2 7.9-4 9-8l.3-.9-1.8-.3a20 20 0 00-2.1-.4zm12.5-.3l8.8-2.2 3.7 4.2 5.4-1.4-15.2-17-3.9 1-5.3 22.2 5.3-1.3zm1-4.5l1.1-5.6 3.6 4.4zm21.7-8.3l9.1 10 3.8-1L71.82 26l2.9 11.6 4.5-1.2-4.8-19.5-5.1 1.3-4.1 16L54 22l-5.2 1.3 4.8 19.5 4.7-1.2zM96.72 24a6.15 6.15 0 00-1.4-11.8 13 13 0 00-5.1.5c-1.4.3-4.5 1.1-6.3 1.6L79 15.49l4.9 19.9 3.9-1 .8-.2-1.8-7.4c1.3-.3 4-.9 5.9-1.5A37.91 37.91 0 0096.72 24zm-1.3-6c.3 1 .2 2.1-3.1 3-1.5.4-5.1 1.3-6.7 1.6l-1.1-4.5c1.6-.4 4.3-1.1 6-1.5 2-.51 4.4-.6 4.9 1.4zm33.3-4.3c-1.5-5.9-7.6-8.8-14.8-7s-11.2 7.3-9.8 13.1 7.7 8.8 14.8 7a14 14 0 008.7-5.9 9.12 9.12 0 001.1-7.21zm-13.8-3c4.5-1.1 7.8.5 8.7 4.1.7 2.9-.4 6.6-5.8 7.9-4.1 1-8-.9-8.8-4.3s1.6-6.71 5.9-7.71zm34 3.7c-1.7 1.5-6.3 2.3-8.9 2a8.51 8.51 0 01-3.3-1.2l-.6-.4-3.1 3.6.6.5a8.07 8.07 0 002.7 1.3c2.5.9 6.3.7 9.7-.1s6.3-2.3 7.5-4a5.15 5.15 0 00.4-5.8c-1.7-3-5.8-2.9-6.6-2.8-1.9.1-3.6.4-5.3.6-1.1.2-2.3.3-3.5.4a4 4 0 01-2.2-.3c-.3-.3-.1-.9 0-1.1.6-1.1 2.4-2.1 4.6-2.6a9.34 9.34 0 015.8.2 6.72 6.72 0 011.7 1l.6.6 3.1-3.6-.7-.5c-2.5-2-6.6-2.7-10.7-1.8-5.2 1.1-8.4 3.3-9.3 6.3a4.61 4.61 0 002.1 5.4c2.2 1.2 5.3.9 9.6.3 2.6-.4 4.9-.6 5.8-.1a1 1 0 01.6.8c.3.3 0 .8-.6 1.3zm-98.5 47.79l-.7-.2-.3.6c-1.2 2.2-3.4 3.4-6.4 3.5-4.3.3-7.6-2.1-7.8-5.5-.2-3.6 2.6-6.2 7-6.5 3-.2 5.3.8 6.5 2.7l.4.6.7-.3c.6-.3 1.3-.7 1.9-1l.3-.2a.35.35 0 01.2-.1l1.1-.5-.6-.8c-2.4-3.4-6.2-5.1-10.8-4.8-7.3.4-12.1 5-11.7 11.1.4 6.4 5.5 10.2 13 9.7 4.8-.3 8.5-2.5 10.3-6.2l.4-.8-1.7-.6c-.22-.1-1.1-.4-1.8-.7zm28.9-12.4l-.1-1.7-4.9.3v.8c0 .3.4 7.5.6 9.5a5.93 5.93 0 01-1 4.4c-1 1.2-2.7 1.8-5.3 1.9h-.1a7 7 0 01-5-1.4A5.2 5.2 0 0162 60c-.1-2.6-.7-10-.7-10.1l-.1-.8-5 .3.2 2.8c.1 2.3.3 6.3.5 8.1.6 6.6 4.4 9.4 12 9 9.1-.6 11-5.6 11-9.7 0-1.9-.3-6-.5-8.4.02-.71-.08-1.11-.08-1.41zm9-2.3l-4.8.2 1.3 20.1 18.1-1.1-.2-4.2-13.4.8zm11.2 3.1l7.4-.5 1 16.3 4.8-.3-1-16.3 7.5-.4-.2-4.1-19.7 1.2zm45.6-4.8l-.1-1.7-4.9.3v.8c0 .3.4 7.5.6 9.5a5.93 5.93 0 01-1 4.4c-1 1.2-2.7 1.8-5.3 1.9h-.1a7 7 0 01-5-1.4 5.2 5.2 0 01-1.5-3.6c-.1-2.6-.7-10-.7-10.1l-.1-.8-5 .3.2 2.7c.1 2.3.3 6.3.5 8.1.6 6.6 4.4 9.4 12 9 9.1-.6 11-5.6 11-9.7 0-1.9-.3-6-.5-8.4 0-.5-.1-1-.1-1.3zm22.3-2.7a12.07 12.07 0 00-5.1-.4h-.5l-12.5.8 1.2 20.4 4.2-.3.6-.1h.2l-.5-7.6 5.2-.3h.2a17.84 17.84 0 014.1 0c.9.2 1.8.8 2.1 3.4.2 1.4.4 3.1.4 3.1l.1.8 4.9-.3-.1-.9s-.2-1.9-.5-4.1c-.1-1-.4-3.4-2.4-4.6a4.93 4.93 0 002.3-4.4 5.61 5.61 0 00-3.9-5.5zm-12.8 4.1l7.2-.4c3.7-.2 4.5.5 4.6 1.9.1 1.1-.1 2.1-3.6 2.5l-7.9.5zm33.5-5.8l-4 .2-9.3 20.8 5.5-.3 2.2-5.1 9-.5 2.8 4.8 5.6-.4zm1 11l-4.9.3 2.1-5.3 2.8 5z" data-name="Camada 1"/></g></svg>
