<svg xmlns="http://www.w3.org/2000/svg" viewBox="0 0 777.53 769.67"><g id="Camada_2" data-name="Camada 2"><g id="Camada_1-2" data-name="Camada 1"><path d="M189.87,94.71q-8.46-15.52-5.31-28.35t17-20.34q13.82-7.53,26.3-3.23t20.94,19.83l9.7,17.81q8.71,16,5.43,28.57t-17.09,20.12q-13.81,7.53-26.18,3.46t-21.06-20.06Zm49.47,20.71a17.91,17.91,0,0,0,6.14-5,13,13,0,0,0,2.43-6.13,17.08,17.08,0,0,0-.71-7,41.9,41.9,0,0,0-3.3-7.68L233.21,69.92a34.05,34.05,0,0,0-4.66-6.65,18.67,18.67,0,0,0-5.62-4.34,14.28,14.28,0,0,0-6.54-1.4,18.32,18.32,0,0,0-13.24,7.22A14.14,14.14,0,0,0,200.78,71a18.51,18.51,0,0,0,.6,7.07,34.18,34.18,0,0,0,3.06,7.52l10.69,19.63a41.51,41.51,0,0,0,4.67,6.94,16.9,16.9,0,0,0,5.51,4.4,13.09,13.09,0,0,0,6.47,1.28A17.91,17.91,0,0,0,239.34,115.42Z" style="fill:red"/><path d="M314,86.55a19.2,19.2,0,0,0,7.54-3.38,12.07,12.07,0,0,0,3.84-5.09,15.34,15.34,0,0,0,.95-6.26,35.57,35.57,0,0,0-1-6.78l-.56-2.27,16.67-4.08L342,61q3.85,15.78-2.33,26.33t-22,14.4q-15.17,3.7-26.25-3.35T276.07,73.61l-4.81-19.7a49.06,49.06,0,0,1-1.45-15.77,31.81,31.81,0,0,1,3.79-13,29.52,29.52,0,0,1,8.63-9.61,36.94,36.94,0,0,1,13-5.79,40.37,40.37,0,0,1,14.44-1.12,27.45,27.45,0,0,1,11.77,4.08,28.54,28.54,0,0,1,8.72,8.84,43.09,43.09,0,0,1,5.42,13.13l.56,2.27-16.67,4.08L319,38.77a27.78,27.78,0,0,0-2.3-6.13,17.23,17.23,0,0,0-3.91-5.06,13.55,13.55,0,0,0-5.81-2.93,16.75,16.75,0,0,0-8,.27,15.78,15.78,0,0,0-6.81,3.34,15,15,0,0,0-4,5.53,18.73,18.73,0,0,0-1.43,7,30.38,30.38,0,0,0,.89,7.74l5.43,22.23a33.75,33.75,0,0,0,2.82,7.67,18.52,18.52,0,0,0,4.3,5.58,12.9,12.9,0,0,0,6,2.88A18,18,0,0,0,314,86.55Z" style="fill:red"/><path d="M427.26,1.19l-1.07,59.53q-.29,15.6-8.7,24.28t-24.66,8.4q-16.24-.3-24.34-9.28t-7.81-24.59L361.76,0l17.15.31-1.08,59.53q-.13,8.05,3.55,12.68t11.74,4.76q8.06.15,11.91-4.33t4-12.54L410.11.88Z" style="fill:red"/><path d="M464.87,66.06l-9.29,33-16.52-4.65,24.65-87.6L498,16.5A30.27,30.27,0,0,1,509.14,22a25.59,25.59,0,0,1,6.7,8.1,24.92,24.92,0,0,1,2.72,9.54,27.74,27.74,0,0,1-.93,9.8l-.85,3a28.88,28.88,0,0,1-4.38,9.1,26.3,26.3,0,0,1-7.36,7,25.5,25.5,0,0,1-10,3.6,29.59,29.59,0,0,1-12.4-1.06Zm4.44-15.76,16.14,4.54q5.51,1.54,9.55-.56a10.55,10.55,0,0,0,5.37-6.86l.42-1.5a10.56,10.56,0,0,0-1-8.66q-2.34-3.9-7.85-5.45l-16.14-4.54Z" style="fill:red"/><path d="M559.6,39.42l49.51,29.14L600.8,82.68,566.07,62.24,555.52,80.16l33.39,19.65-8.31,14.12L547.21,94.28l-10.68,18.15,36.07,21.23-8.31,14.12-50.86-29.94Z" style="fill:red"/><path d="M669.62,243.77,654.13,217,635,222.93l-9-15.53,89.64-26.77,16.14,27.91-67.9,64.35-9-15.53Zm.51-31.83,11.78,20.37,35-32.42-1.17-2Z" style="fill:red"/><path d="M698.49,386.23a19.29,19.29,0,0,0,1.56,8.11,12.05,12.05,0,0,0,4.07,4.91,15.26,15.26,0,0,0,5.86,2.36,35,35,0,0,0,6.83.6l2.34,0,.13,17.16-2.34,0q-16.25.12-25.09-8.33t-9-24.7q-.1-15.6,9.31-24.77t27.62-9.3l20.28-.16a49.24,49.24,0,0,1,15.68,2.22A31.74,31.74,0,0,1,767.53,361a29.56,29.56,0,0,1,7.36,10.6,37.06,37.06,0,0,1,2.64,14A40.56,40.56,0,0,1,775.3,400a27.66,27.66,0,0,1-6.68,10.51A28.76,28.76,0,0,1,758,416.91a42.86,42.86,0,0,1-14,2.26h-2.34L741.51,402h2.34a28.39,28.39,0,0,0,6.5-.83,17.11,17.11,0,0,0,5.83-2.65,13.47,13.47,0,0,0,4.18-5,16.78,16.78,0,0,0,1.57-7.81,15.82,15.82,0,0,0-1.68-7.4,15.12,15.12,0,0,0-4.46-5.17,18.76,18.76,0,0,0-6.52-3,30.39,30.39,0,0,0-7.74-.92l-22.88.17a34.21,34.21,0,0,0-8.12,1,18.47,18.47,0,0,0-6.41,2.9,13,13,0,0,0-4.19,5.17A18.15,18.15,0,0,0,698.49,386.23Z" style="fill:red"/><path d="M771.21,454.77l-15,59-15.88-4,5.38-21.17-56.44-14.34-5.38,21.17-15.88-4,15-59,15.88,4-5.38,21.17L750,471.9l5.38-21.17Z" style="fill:red"/><path d="M743.41,547.29l-16,28.88q-8.19,14.79-19,18.13t-25.29-4.65l-23.2-12.86q-14.43-8-17.34-19t5.28-25.76l16-28.87,14.44,8-4.16,7.5,50.83,28.18,4.15-7.51ZM662.14,540q-4.35,7.85-2.39,13t9.81,9.52l21.83,12.1q6.83,3.78,12.08,2.61t9.61-9l3.52-6.37-50.93-28.23Z" style="fill:red"/><path d="M605.48,618.77l21.44-22.31-11-16.7,12.43-12.93,50.58,78.7-22.34,23.25-80.66-47.4,12.43-12.93Zm30.73-8.34-16.3,17,40.85,24.65,1.62-1.68Z" style="fill:red"/><path d="M619.06,701.84,590.91,719.1q-14.4,8.83-25.5,6.41T545.68,709L531.82,686.4q-8.62-14.07-5.76-25.06t17.28-19.82l28.15-17.26,8.63,14.08-7.31,4.48,30.37,49.54,7.32-4.48ZM551.9,655.49q-7.65,4.68-8.48,10.16t3.85,13.11l13,21.28q4.08,6.65,9.24,8.22t12.8-3.12l6.2-3.81-30.44-49.65Z" style="fill:red"/><path d="M527.09,751.9l-55,16.51-4.7-15.69L506,741.14l-6-19.92-37.1,11.13-4.71-15.69,37.11-11.13-6-20.17-40.1,12-4.7-15.69,56.53-17Z" style="fill:red"/><path d="M318.52,691.54a19,19,0,0,0-8.25-.34,12,12,0,0,0-5.71,2.83,15.27,15.27,0,0,0-3.64,5.18,35.24,35.24,0,0,0-2.15,6.51l-.51,2.28-16.74-3.8.52-2.28q3.6-15.85,13.84-22.52t26.1-3.08q15.21,3.46,22,14.72t2.75,29l-4.49,19.78a49.1,49.1,0,0,1-5.75,14.76,31.83,31.83,0,0,1-9.18,9.91,29.7,29.7,0,0,1-12,4.74,37,37,0,0,1-14.26-.63,40.65,40.65,0,0,1-13.42-5.45,27.69,27.69,0,0,1-8.71-8.91A28.7,28.7,0,0,1,275,742.45a42.84,42.84,0,0,1,1-14.16l.52-2.29,16.74,3.8-.52,2.29a27.57,27.57,0,0,0-.68,6.51,17.1,17.1,0,0,0,1.24,6.28,13.5,13.5,0,0,0,3.88,5.21,16.77,16.77,0,0,0,7.25,3.31,15.85,15.85,0,0,0,7.59.06,15.12,15.12,0,0,0,6-3.16,18.72,18.72,0,0,0,4.42-5.66,30.64,30.64,0,0,0,2.67-7.33L330.26,715a33.93,33.93,0,0,0,.91-8.13,18.61,18.61,0,0,0-1.36-6.91,12.9,12.9,0,0,0-4.08-5.25A17.89,17.89,0,0,0,318.52,691.54Z" style="fill:red"/><path d="M254.24,716.73q-8.18,15.67-20.58,20.21t-26.35-2.74q-14-7.28-17.34-20t4.78-28.44l9.37-18q8.41-16.14,20.7-20.44t26.23,3q13.95,7.28,17.46,19.8t-4.9,28.67Zm-10.4-52.63a18.08,18.08,0,0,0-7.61-2.28,13.08,13.08,0,0,0-6.45,1.41,16.87,16.87,0,0,0-5.42,4.5,41.28,41.28,0,0,0-4.54,7l-10.33,19.83a34.5,34.5,0,0,0-2.92,7.56,18.68,18.68,0,0,0-.47,7.09,14.1,14.1,0,0,0,2.49,6.21,16.11,16.11,0,0,0,5.93,4.92,16.28,16.28,0,0,0,7.44,2,14.37,14.37,0,0,0,6.51-1.52,18.71,18.71,0,0,0,5.54-4.45,34,34,0,0,0,4.53-6.72l10.33-19.83a40.61,40.61,0,0,0,3.16-7.74,17,17,0,0,0,.58-7,13.09,13.09,0,0,0-2.54-6.1A18.21,18.21,0,0,0,243.84,664.1Z" style="fill:red"/><path d="M153.68,700.33,131.39,680l42.25-54,8.93-9.8-2.3-2.1-8.94,9.8-49.93,47L99.12,650.56l61.33-67.22L172,593.85,131,638.8,115.8,653.11l2.31,2.1,60-55.75,19,17.34-49.83,65.05,2.3,2.1,12.87-16.42,41-44.94L215,633.1Z" style="fill:red"/><path d="M82.08,472.56,91.73,502l19.9-1.88,5.6,17L24,524.88,13.94,494.25l79.69-49,5.59,17Zm-7,31.05-7.34-22.35L26.76,505.78l.73,2.22Z" style="fill:red"/><path d="M89.38,375.51l1,17.13-27.25,1.6a7.65,7.65,0,0,0-5,1.92q-1.85,1.74-1.63,5.5l1.16,19.73,34.26-2,1,17.13L2.13,441.85l-2-34.78A36.24,36.24,0,0,1,1.3,394.62a25,25,0,0,1,4.87-9.2,23.26,23.26,0,0,1,7.66-5.92A25.18,25.18,0,0,1,23.45,377l3.12-.18a19.64,19.64,0,0,1,10.62,2.37,18.91,18.91,0,0,1,8,8.77l2.34-.13A10.55,10.55,0,0,1,58,377.36Zm-48,46.84-1-16.35c-.24-4.16-1.4-7.25-3.48-9.3s-4.88-3-8.43-2.76l-1.56.09a10.88,10.88,0,0,0-7.66,3.7q-3.12,3.45-2.75,9.67l1,16.35Z" style="fill:red"/><path d="M.84,344.39l12.87-64.25,16.06,3.22L25,307.07l73.16,14.65-3.37,16.83L21.65,323.9,16.9,347.6Z" style="fill:red"/><path d="M26.39,244.05l25.23-51.62,14.72,7.2-17.7,36.2L67.33,245l17-34.81,14.72,7.2-17,34.8L101,261.41l18.39-37.61,14.71,7.2-25.92,53Z" style="fill:red"/></g></g></svg>