<svg version="1.1" id="Camada_1" x="0" y="0" viewBox="0 0 199.9 70.6" xml:space="preserve"><style>.st0{fill:#f2849e}</style><switch><g><path class="st0" d="M20.2 43.2l-.7-.1-.2.7c-.8 2.4-2.7 3.9-5.6 4.6-4.2 1-7.8-.7-8.6-4-.9-3.5 1.4-6.6 5.7-7.6 2.9-.7 5.3-.2 6.9 1.5l.5.5.6-.5c.5-.4 1.2-.9 1.7-1.3l.3-.2s.1-.1.2-.1l1-.7-.7-.7c-3-2.9-7-3.8-11.5-2.7-7.1 1.8-11 7.1-9.5 13 1.5 6.2 7.2 9 14.5 7.2 4.7-1.2 7.9-4 9-8l.3-.9-1.8-.3c-.4-.1-1.3-.3-2.1-.4zM32.7 42.9l8.8-2.2 3.7 4.2 5.4-1.4-15.2-17-3.9 1-5.3 22.2 5.3-1.3 1.2-5.5zm1-4.5l1.1-5.6 3.6 4.4-4.7 1.2zM55.4 30.1l9.1 10 3.8-1L71.8 26l2.9 11.6 4.5-1.2-4.8-19.5-5.1 1.3-4.1 16L54 22l-5.2 1.3 4.8 19.5 4.7-1.2zM96.7 24c2.9-1.3 4.4-4.1 3.7-7.1-.7-2.6-2.5-4.3-5.1-4.7-1.7-.3-3.2.1-5.1.5-1.4.3-4.5 1.1-6.3 1.6L79 15.5l4.9 19.9 3.9-1 .8-.2-1.8-7.4c1.3-.3 4-.9 5.9-1.5 1.6-.4 2.9-.9 4-1.3zm-1.3-6c.3 1 .2 2.1-3.1 3-1.5.4-5.1 1.3-6.7 1.6l-1.1-4.5c1.6-.4 4.3-1.1 6-1.5 2-.5 4.4-.6 4.9 1.4zM128.7 13.7c-1.5-5.9-7.6-8.8-14.8-7-7.1 1.8-11.2 7.3-9.8 13.1 1.4 5.8 7.7 8.8 14.8 7 3.9-1 7-3.1 8.7-5.9 1.4-2.2 1.7-4.7 1.1-7.2zm-13.8-3c4.5-1.1 7.8.5 8.7 4.1.7 2.9-.4 6.6-5.8 7.9-4.1 1-8-.9-8.8-4.3-.8-3.4 1.6-6.7 5.9-7.7zM148.9 14.4c-1.7 1.5-6.3 2.3-8.9 2-2-.3-3.3-1.2-3.3-1.2l-.6-.4-3.1 3.6.6.5c.1.1.7.6 2.7 1.3 2.5.9 6.3.7 9.7-.1 3.3-.8 6.3-2.3 7.5-4 1.3-1.8 1.5-4 .4-5.8-1.7-3-5.8-2.9-6.6-2.8-1.9.1-3.6.4-5.3.6-1.1.2-2.3.3-3.5.4-1.3.1-2.1-.2-2.2-.3-.3-.3-.1-.9 0-1.1.6-1.1 2.4-2.1 4.6-2.6 2.2-.5 4.3-.5 5.8.2 1 .4 1.7 1 1.7 1l.6.6 3.1-3.6-.7-.5c-2.5-2-6.6-2.7-10.7-1.8-5.2 1.1-8.4 3.3-9.3 6.3-.6 2.2.2 4.3 2.1 5.4 2.2 1.2 5.3.9 9.6.3 2.6-.4 4.9-.6 5.8-.1.2.1.6.4.6.8.3.3 0 .8-.6 1.3z"/><g><path class="st0" d="M50.4 62.2l-.7-.2-.3.6C48.2 64.8 46 66 43 66.1c-4.3.3-7.6-2.1-7.8-5.5-.2-3.6 2.6-6.2 7-6.5 3-.2 5.3.8 6.5 2.7l.4.6.7-.3c.6-.3 1.3-.7 1.9-1l.3-.2s.1-.1.2-.1l1.1-.5-.6-.8c-2.4-3.4-6.2-5.1-10.8-4.8-7.3.4-12.1 5-11.7 11.1.4 6.4 5.5 10.2 13 9.7 4.8-.3 8.5-2.5 10.3-6.2l.4-.8-1.7-.6c-.2-.1-1.1-.4-1.8-.7zM79.3 49.8l-.1-1.7-4.9.3v.8c0 .3.4 7.5.6 9.5.2 1.9-.2 3.4-1 4.4-1 1.2-2.7 1.8-5.3 1.9h-.1c-2.1.1-3.9-.4-5-1.4-.9-.8-1.4-2.1-1.5-3.6-.1-2.6-.7-10-.7-10.1l-.1-.8-5 .3.2 2.8c.1 2.3.3 6.3.5 8.1.6 6.6 4.4 9.4 12 9 9.1-.6 11-5.6 11-9.7 0-1.9-.3-6-.5-8.4 0-.7-.1-1.1-.1-1.4zM88.3 47.5l-4.8.2 1.3 20.1 18.1-1.1-.2-4.2-13.4.8zM99.5 50.6l7.4-.5 1 16.3 4.8-.3-1-16.3 7.5-.4-.2-4.1-19.7 1.2zM145.1 45.8l-.1-1.7-4.9.3v.8c0 .3.4 7.5.6 9.5.2 1.9-.2 3.4-1 4.4-1 1.2-2.7 1.8-5.3 1.9h-.1c-2.1.1-3.9-.4-5-1.4-.9-.8-1.4-2.1-1.5-3.6-.1-2.6-.7-10-.7-10.1l-.1-.8-5 .3.2 2.7c.1 2.3.3 6.3.5 8.1.6 6.6 4.4 9.4 12 9 9.1-.6 11-5.6 11-9.7 0-1.9-.3-6-.5-8.4 0-.5-.1-1-.1-1.3zM167.4 43.1c-1.5-.6-3.2-.5-5.1-.4h-.5l-12.5.8 1.2 20.4 4.2-.3.6-.1h.2l-.5-7.6 5.2-.3h.2c2.1-.1 3.2-.2 4.1 0 .9.2 1.8.8 2.1 3.4.2 1.4.4 3.1.4 3.1l.1.8 4.9-.3-.1-.9s-.2-1.9-.5-4.1c-.1-1-.4-3.4-2.4-4.6 1.5-1 2.4-2.6 2.3-4.4-.1-2.7-1.4-4.6-3.9-5.5zm-12.8 4.1c1.9-.1 5.5-.3 7.2-.4 3.7-.2 4.5.5 4.6 1.9.1 1.1-.1 2.1-3.6 2.5l-7.9.5-.3-4.5zM188.1 41.4l-4 .2-9.3 20.8 5.5-.3 2.2-5.1 9-.5 2.8 4.8 5.6-.4-11.8-19.5zm1 11l-4.9.3 2.1-5.3 2.8 5z"/></g></g></switch></svg>
